<svg aria-hidden="true" style="position:absolute;width:0;height:0;overflow:hidden" xmlns="http://www.w3.org/2000/svg">
  <defs>
    <symbol id="icon-Facebook" viewBox="0 0 31 32">
      <path
        d="M28.16 16.51c0-7.112-5.731-12.878-12.8-12.878s-12.8 5.766-12.8 12.878c0 6.428 4.681 11.756 10.8 12.722v-8.999h-3.25v-3.723h3.25v-2.837c0-3.228 1.911-5.010 4.835-5.010 1.401 0 2.865 0.252 2.865 0.252v3.169h-1.614c-1.59 0-2.086 0.993-2.086 2.011v2.416h3.55l-0.567 3.723h-2.983v8.999c6.119-0.966 10.8-6.294 10.8-12.722z">
      </path>
    </symbol>
    <symbol id="icon-Instagram" viewBox="0 0 31 32">
      <path
        d="M15.358 6.676c3.078 0 3.442 0.014 4.652 0.068 1.125 0.050 1.732 0.238 2.137 0.396 0.536 0.207 0.922 0.459 1.323 0.86 0.405 0.405 0.652 0.788 0.864 1.323 0.158 0.405 0.346 1.017 0.396 2.137 0.054 1.215 0.068 1.579 0.068 4.653s-0.014 3.442-0.068 4.653c-0.050 1.125-0.238 1.732-0.396 2.137-0.207 0.536-0.459 0.922-0.86 1.323-0.405 0.405-0.788 0.652-1.323 0.864-0.405 0.158-1.017 0.346-2.137 0.396-1.215 0.054-1.58 0.068-4.653 0.068s-3.442-0.014-4.653-0.068c-1.125-0.050-1.732-0.238-2.137-0.396-0.536-0.207-0.922-0.459-1.323-0.86-0.405-0.405-0.652-0.788-0.864-1.322-0.158-0.405-0.346-1.017-0.396-2.137-0.054-1.215-0.068-1.579-0.068-4.653s0.014-3.442 0.068-4.653c0.050-1.125 0.238-1.732 0.396-2.137 0.207-0.536 0.459-0.922 0.86-1.323 0.405-0.405 0.788-0.652 1.323-0.864 0.405-0.158 1.017-0.346 2.137-0.396 1.21-0.054 1.575-0.068 4.653-0.068h0.001zM15.358 4.602c-3.127 0-3.518 0.014-4.747 0.068-1.224 0.054-2.065 0.252-2.794 0.536-0.76 0.297-1.404 0.688-2.042 1.332-0.644 0.639-1.035 1.282-1.332 2.038-0.284 0.734-0.482 1.57-0.536 2.794-0.054 1.233-0.068 1.624-0.068 4.751s0.014 3.518 0.068 4.747c0.054 1.224 0.252 2.065 0.536 2.794 0.297 0.76 0.688 1.404 1.332 2.042 0.639 0.639 1.282 1.035 2.038 1.328 0.734 0.284 1.57 0.482 2.794 0.536 1.228 0.054 1.62 0.068 4.747 0.068s3.519-0.014 4.747-0.068c1.224-0.054 2.065-0.252 2.794-0.536 0.756-0.292 1.4-0.688 2.038-1.328s1.035-1.282 1.328-2.038c0.284-0.734 0.482-1.57 0.536-2.794 0.054-1.228 0.068-1.62 0.068-4.747s-0.014-3.518-0.068-4.747c-0.054-1.224-0.252-2.065-0.536-2.794-0.284-0.765-0.675-1.408-1.318-2.047-0.639-0.639-1.282-1.035-2.038-1.327-0.734-0.284-1.57-0.482-2.794-0.536-1.233-0.058-1.624-0.072-4.751-0.072l-0.001 0.001z">
      </path>
      <path
        d="M15.358 10.204c-3.266 0-5.917 2.65-5.917 5.917s2.65 5.917 5.917 5.917c3.267 0 5.917-2.65 5.917-5.917s-2.65-5.917-5.917-5.917zM15.358 19.958c-2.119 0-3.838-1.718-3.838-3.838s1.718-3.838 3.838-3.838c2.119 0 3.838 1.718 3.838 3.838s-1.718 3.838-3.838 3.838z">
      </path>
      <path
        d="M22.889 9.97c0 0.763-0.618 1.381-1.381 1.381s-1.381-0.618-1.381-1.381 0.619-1.381 1.381-1.381c0.763 0 1.381 0.618 1.381 1.381z">
      </path>
    </symbol>
    <symbol id="icon-Youtube" viewBox="0 0 31 32">
      <path
        d="M27.639 9.981c-0.146-0.541-0.431-1.034-0.826-1.431s-0.888-0.683-1.429-0.83c-2.004-0.55-10.024-0.559-10.024-0.559s-8.018-0.009-10.024 0.517c-0.54 0.154-1.032 0.444-1.428 0.842s-0.683 0.892-0.833 1.433c-0.529 2.004-0.534 6.162-0.534 6.162s-0.005 4.178 0.52 6.162c0.294 1.097 1.158 1.964 2.257 2.259 2.025 0.55 10.022 0.559 10.022 0.559s8.019 0.009 10.024-0.516c0.541-0.147 1.034-0.432 1.431-0.828s0.683-0.888 0.831-1.429c0.53-2.003 0.534-6.159 0.534-6.159s0.026-4.179-0.521-6.184zM12.795 19.968l0.006-7.68 6.665 3.846-6.671 3.834z">
      </path>
    </symbol>
    <symbol id="icon-caret-right" viewBox="0 0 31 32">
      <path d="M11.52 24.666l10.24-8.96-10.24-8.96v17.92z"></path>
    </symbol>
    <symbol id="icon-down-arrow-alt" viewBox="0 0 31 32">
      <path
        d="M23.945 16.611l-1.81-1.81-5.495 5.495v-12.27h-2.56v12.27l-5.495-5.495-1.81 1.81 8.585 8.585 8.585-8.585z">
      </path>
    </symbol>
    <symbol id="icongo-icon" viewBox="0 0 32 32">
      <path
        d="M17.284 3.195c0.38-0.041 0.82 0.039 1.185 0.142 0.827 0.235 1.5 0.738 1.899 1.456 0.415 0.736 0.494 1.596 0.221 2.387-0.347 0.976-1.092 1.466-2.022 1.917l0.010 2.845c0.665 0.189 1.311 0.403 1.915 0.728 1.387 0.749 2.336 2.013 2.733 3.45 0.42 1.507 0.181 3.109-0.665 4.452-0.776 1.218-2.014 2.117-3.495 2.461-1.935 0.451-3.576-0.037-5.24-0.959-0.735 0.732-1.462 1.473-2.179 2.222 0.32 0.704 0.427 1.444 0.214 2.192-0.208 0.732-0.758 1.359-1.462 1.73-0.789 0.416-1.688 0.492-2.553 0.261-0.858-0.229-1.58-0.724-1.999-1.469-0.413-0.732-0.448-1.589-0.18-2.371 0.305-0.888 0.925-1.435 1.797-1.841 0.939-0.342 1.715-0.23 2.631 0.078 0.763-0.748 1.481-1.534 2.252-2.275-0.847-1.548-1.122-2.866-0.681-4.572-0.959-0.417-1.883-0.903-2.843-1.321-0.513 0.497-1.139 0.838-1.875 0.954-0.878 0.138-1.803-0.085-2.525-0.566-0.715-0.482-1.185-1.218-1.301-2.033-0.119-0.791 0.105-1.662 0.648-2.286 0.56-0.644 1.43-1.032 2.308-1.117 0.863-0.078 1.724 0.167 2.392 0.681 0.855 0.667 1.101 1.496 1.205 2.484 0.91 0.52 1.951 0.92 2.899 1.384 1.233-1.358 2.134-1.787 3.931-2.303l0.002-2.824c-0.322-0.12-0.643-0.266-0.923-0.458-0.709-0.489-1.175-1.225-1.29-2.040-0.106-0.811 0.139-1.628 0.682-2.269 0.594-0.694 1.387-1.010 2.307-1.123zM21.247 17.242c-0.183-1.943-2.014-3.383-4.1-3.225-2.104 0.16-3.667 1.885-3.483 3.844s2.046 3.406 4.148 3.221c2.084-0.183 3.618-1.898 3.435-3.841z">
      </path>
      <path
        d="M27.276 12.524c0.089-0.004 0.175-0.005 0.264 0.007 0.277 0.037 0.549 0.162 0.702 0.388 0.162 0.24 0.184 0.56 0.206 0.838 0.11 1.377 0.028 2.809 0.028 4.19-0 1.128 0.134 2.658-0.091 3.745-0.071 0.341-0.314 0.505-0.605 0.69-0.111 0.013-0.227 0.027-0.339 0.021-0.25-0.013-0.486-0.117-0.648-0.294-0.16-0.176-0.155-0.529-0.169-0.749-0.102-1.584-0.016-3.218-0.014-4.806 0.001-0.903-0.132-2.63 0.071-3.436 0.073-0.288 0.352-0.439 0.595-0.593z">
      </path>
      <path
        d="M24.726 14.736c0.3 0.051 0.565 0.156 0.74 0.399 0.269 0.374 0.277 4.041 0.142 4.564-0.074 0.286-0.339 0.426-0.591 0.563-0.288-0.016-0.668-0.040-0.86-0.273-0.287-0.346-0.263-4.243-0.1-4.732 0.095-0.284 0.408-0.404 0.67-0.522z">
      </path>
    </symbol>
    <symbol id="icon-close" viewBox="0 0 32 32">
      <path
        d="M22.835 22.364l-0.471 0.471c-0.26 0.26-0.682 0.26-0.943 0l-5.421-5.421-5.421 5.421c-0.26 0.26-0.682 0.26-0.943 0l-0.471-0.471c-0.26-0.26-0.26-0.682 0-0.943l5.421-5.421-5.421-5.421c-0.26-0.26-0.26-0.682 0-0.943l0.471-0.471c0.26-0.26 0.682-0.26 0.943 0l5.421 5.421 5.421-5.421c0.26-0.26 0.683-0.26 0.943 0l0.471 0.471c0.26 0.26 0.26 0.682 0 0.943l-5.421 5.421 5.421 5.421c0.26 0.26 0.26 0.683 0 0.943z">
      </path>
    </symbol>
    <symbol id="icon-artist-modal-close-icon" viewBox="0 0 32 32">
      <path
        d="m29.671 28.728-.943.943a1.333 1.333 0 0 1-1.886 0L16 18.829 5.158 29.671a1.333 1.333 0 0 1-1.886 0l-.943-.943a1.333 1.333 0 0 1 0-1.886L13.171 16 2.329 5.158a1.333 1.333 0 0 1 0-1.886l.943-.943a1.333 1.333 0 0 1 1.886 0L16 13.171 26.842 2.329a1.333 1.333 0 0 1 1.886 0l.943.943a1.333 1.333 0 0 1 0 1.886L18.829 16l10.842 10.842a1.333 1.333 0 0 1 0 1.886z" />
    </symbol>
    <symbol id="icon-toast-close" viewBox="0 0 32 32">
      <path
        d="M4.292 5.708A.991.991 0 0 1 3.999 5a1.006 1.006 0 0 1 .618-.925 1.01 1.01 0 0 1 .766 0c.121.05.232.124.325.217L16 14.586 26.292 4.292A.991.991 0 0 1 27 3.999a1.002 1.002 0 0 1 .708 1.709L17.414 16l10.294 10.292a.991.991 0 0 1 .293.708 1.006 1.006 0 0 1-.618.925 1.006 1.006 0 0 1-1.091-.217L16 17.414 5.708 27.708a.991.991 0 0 1-.708.293 1.006 1.006 0 0 1-.925-.618 1.01 1.01 0 0 1 0-.766c.05-.121.124-.232.217-.325L14.586 16 4.292 5.708z" />
    </symbol>
    <symbol id="icon-toast-error" viewBox="0 0 32 32">
      <path
        d="M9.08.292A.998.998 0 0 1 9.786 0h12.428c.265 0 .519.105.706.292l8.788 8.788a.998.998 0 0 1 .292.706v12.428a.998.998 0 0 1-.292.706l-8.788 8.788a.998.998 0 0 1-.706.292H9.786a.998.998 0 0 1-.706-.292L.292 22.92A.998.998 0 0 1 0 22.214V9.786c0-.265.105-.519.292-.706L9.08.292zM10.2 2 2 10.2v11.6l8.2 8.2h11.6l8.2-8.2V10.2L21.8 2H10.2z" />
      <path
        d="M9.292 9.292A.991.991 0 0 1 10 8.999a1.002 1.002 0 0 1 .708.293L16 14.586l5.292-5.294A.991.991 0 0 1 22 8.999a1.006 1.006 0 0 1 .925.618 1.01 1.01 0 0 1 0 .766c-.05.121-.124.232-.217.325L17.414 16l5.294 5.292a.991.991 0 0 1 .293.708 1.006 1.006 0 0 1-.618.925 1.01 1.01 0 0 1-.766 0 1.002 1.002 0 0 1-.325-.217L16 17.414l-5.292 5.294a.991.991 0 0 1-.708.293 1.002 1.002 0 0 1-.708-1.709L14.586 16l-5.294-5.292A.991.991 0 0 1 8.999 10a1.002 1.002 0 0 1 .293-.708z" />
    </symbol>
    <symbol id="icon-menu-alt-right" viewBox="0 0 32 32">
      <path
        d="M5.333 8h21.333v2.667h-21.333v-2.667zM10.667 14.667h16v2.667h-16v-2.667zM17.333 21.333h9.333v2.667h-9.333v-2.667z">
      </path>
    </symbol>
    <symbol id="footer-logo" viewBox="0 0 96 32">
      <path
        d="M19.558 0.649c0.517-0.059 1.116 0.056 1.614 0.208 1.127 0.343 2.043 1.078 2.587 2.127 0.565 1.076 0.673 2.334 0.3 3.49-0.473 1.426-1.488 2.144-2.755 2.803l0.014 4.16c0.905 0.276 1.786 0.589 2.608 1.065 1.889 1.095 3.182 2.942 3.724 5.043 0.573 2.204 0.247 4.546-0.905 6.51-1.057 1.78-2.743 3.095-4.761 3.599-2.636 0.659-4.872-0.054-7.138-1.401-1.001 1.071-1.991 2.153-2.968 3.248 0.437 1.030 0.582 2.111 0.292 3.206-0.283 1.070-1.033 1.987-1.992 2.529-1.075 0.608-2.299 0.718-3.477 0.381-1.169-0.335-2.152-1.058-2.724-2.147-0.562-1.070-0.61-2.324-0.245-3.466 0.415-1.298 1.259-2.098 2.447-2.691 1.279-0.5 2.336-0.335 3.584 0.114 1.039-1.094 2.017-2.243 3.067-3.327-1.154-2.263-1.528-4.19-0.928-6.684-1.306-0.61-2.566-1.319-3.873-1.93-0.698 0.727-1.553 1.226-2.555 1.394-1.195 0.201-2.456-0.125-3.439-0.827-0.974-0.705-1.614-1.781-1.772-2.974-0.161-1.156 0.143-2.429 0.883-3.341 0.763-0.941 1.948-1.509 3.144-1.635 1.175-0.114 2.348 0.244 3.258 0.996 1.164 0.975 1.501 2.188 1.642 3.632 1.239 0.759 2.658 1.345 3.948 2.023 1.68-1.986 2.908-2.612 5.356-3.367l0.001-4.129c-0.438-0.175-0.875-0.389-1.257-0.669-0.966-0.715-1.601-1.791-1.757-2.982-0.145-1.185 0.191-2.379 0.93-3.316 0.808-1.014 1.889-1.476 3.143-1.642zM24.956 21.186c-0.249-2.84-2.745-4.946-5.587-4.715-2.867 0.234-4.995 2.755-4.744 5.62s2.787 4.979 5.65 4.71c2.838-0.267 4.929-2.776 4.68-5.615z">
      </path>
      <path
        d="M49.208 14.71c1.486 4.578 3.387 9.033 4.835 13.624l-2.738 0.002c-0.321-0.98-0.63-2.089-1.12-2.995-0.32-0.137-0.699-0.091-1.041-0.087-1.321 0.013-2.641 0.009-3.962-0.013-0.415 1.012-0.749 2.052-1.077 3.094l-2.788-0.002c1.456-4.57 3.192-9.082 4.764-13.617 1.040 0.023 2.086-0.002 3.126-0.006zM47.647 18.094c-0.577 1.639-1.114 3.3-1.745 4.918l2.005-0.001 1.558-0.017c-0.219-0.616-1.49-4.627-1.817-4.9z">
      </path>
      <path
        d="M75.933 18.233c1.298-0.102 2.652-0.010 3.701 0.865 0.735 0.612 0.973 1.348 1.053 2.262l-2.347-0.003c-0.135-0.251-0.27-0.542-0.482-0.738-0.338-0.312-0.828-0.474-1.285-0.45-0.356 0.019-0.809 0.161-1.031 0.462-0.134 0.183-0.208 0.371-0.157 0.599 0.267 1.203 3.326 1.054 4.3 1.691 0.62 0.406 1.095 1.134 1.233 1.86 0.138 0.742-0.039 1.509-0.487 2.117-0.748 1.031-1.9 1.401-3.099 1.585-1.11 0.067-2.397-0.231-3.286-0.907-0.833-0.634-1.133-1.413-1.246-2.415 0.79 0.002 1.582-0.006 2.372-0.022 0.046 0.149 0.098 0.293 0.173 0.431 0.344 0.635 1.032 0.776 1.669 0.964 0.421-0.097 0.991-0.205 1.29-0.545 0.18-0.206 0.243-0.562 0.167-0.823-0.292-1.006-3.223-1.124-4.24-1.75-0.602-0.371-1.045-0.911-1.205-1.608-0.145-0.632-0.090-1.342 0.266-1.895 0.641-1.002 1.527-1.413 2.642-1.679z">
      </path>
      <path
        d="M91.723 18.23c0.739-0.060 1.463-0.056 2.184 0.139 0.831 0.225 1.714 0.689 2.134 1.477 0.202 0.377 0.357 1.056 0.221 1.475-0.673 0.146-1.496 0.047-2.188 0.039-0.102-0.343-0.188-0.607-0.466-0.844-0.352-0.295-0.809-0.434-1.266-0.384-0.357 0.037-0.817 0.213-1.016 0.532-0.119 0.191-0.168 0.387-0.093 0.607 0.432 1.273 3.023 0.971 4.030 1.546 0.641 0.367 1.178 1.012 1.36 1.733 0.196 0.775 0.066 1.636-0.381 2.302-0.668 0.995-1.728 1.37-2.847 1.587-1.099 0.136-2.371-0.098-3.289-0.731-0.943-0.65-1.226-1.466-1.438-2.531l2.353-0.017c0.143 0.36 0.273 0.64 0.578 0.89 0.406 0.333 0.888 0.484 1.412 0.414 0.406-0.054 0.806-0.241 1.049-0.58 0.159-0.223 0.238-0.494 0.162-0.765-0.295-1.047-2.892-0.981-3.923-1.536-0.696-0.376-1.248-1-1.468-1.765-0.187-0.648-0.109-1.324 0.233-1.907 0.569-0.966 1.613-1.438 2.659-1.679z">
      </path>
      <path
        d="M62.764 15.808c0.781 0.027 1.568 0.010 2.349 0.014-0.009 0.882 0.004 1.764 0.038 2.645l2.318 0.001-0.005 2.020-2.207-0.001c0.001 1.271-0.29 4.551 0.294 5.533 0.456 0.359 1.365 0.225 1.919 0.219l-0.008 1.674c0.005 0.173 0.004 0.26-0.084 0.41-0.309 0.148-0.625 0.181-0.966 0.184-0.897 0.008-2.135-0.154-2.78-0.826-1.295-1.348-0.881-5.315-0.875-7.196l-1.496 0.003 0.004-2.025 1.489 0.010 0.008-2.666z">
      </path>
      <path
        d="M82.912 15.797l2.306 0.013c-0.017 0.883 0.019 1.771 0.036 2.655l2.355-0.005-0.004 2.030-2.217-0.002c0.027 1.21-0.269 4.59 0.279 5.505 0.589 0.352 1.327 0.258 1.989 0.256-0.008 0.583 0.004 1.168 0.006 1.752l-0.028 0.221c-0.228 0.241-0.579 0.231-0.891 0.239-0.947 0.023-2.255-0.127-2.942-0.846-1.282-1.342-0.883-5.253-0.871-7.128l-1.577 0.001c-0.020-0.672-0.012-1.346-0.017-2.018l1.571 0.008 0.004-2.681z">
      </path>
      <path
        d="M33.169 14.287c0.121-0.006 0.239-0.008 0.359 0.010 0.377 0.055 0.748 0.237 0.956 0.568 0.22 0.351 0.25 0.819 0.281 1.225 0.149 2.013 0.038 4.107 0.038 6.126-0.001 1.649 0.182 3.886-0.124 5.475-0.096 0.499-0.427 0.738-0.824 1.008-0.151 0.018-0.309 0.039-0.461 0.030-0.34-0.019-0.663-0.171-0.883-0.43-0.218-0.257-0.211-0.773-0.231-1.095-0.138-2.315-0.021-4.704-0.019-7.027 0.001-1.32-0.18-3.846 0.097-5.023 0.099-0.421 0.479-0.642 0.811-0.866z">
      </path>
      <path
        d="M59.906 18.432l0.331-0.004c0.393 0.439 0.198 1.83 0.185 2.406-0.83-0.009-1.615-0.042-2.264 0.561-1.22 1.131-0.809 5.276-0.821 6.94-0.654-0.006-1.927 0.233-2.427-0.183l-0.026-0.412c0.012-3.083-0.066-6.163-0.046-9.246 0.791 0.025 1.586 0.008 2.377 0.004l-0.028 1.361c0.147-0.211 0.293-0.437 0.463-0.629 0.6-0.677 1.414-0.738 2.255-0.798z">
      </path>
      <path d="M68.91 18.473l2.487 0.001 0.006 9.866-2.516-0.004 0.023-9.864z"></path>
      <path
        d="M29.696 17.52c0.408 0.075 0.77 0.229 1.008 0.583 0.367 0.547 0.377 5.908 0.193 6.673-0.101 0.418-0.462 0.622-0.805 0.823-0.393-0.023-0.909-0.058-1.172-0.399-0.39-0.506-0.358-6.203-0.136-6.918 0.129-0.415 0.556-0.591 0.912-0.762z">
      </path>
      <path
        d="M69.989 14.408c0.739-0.087 1.413 0.43 1.521 1.166s-0.388 1.425-1.12 1.555c-0.494 0.088-0.996-0.1-1.311-0.49s-0.393-0.92-0.204-1.384c0.189-0.464 0.615-0.788 1.113-0.847z">
      </path>
    </symbol>
  </defs>
</svg>